<svg xmlns="http://www.w3.org/2000/svg" viewBox="0 0 490.97 75.2"><defs><style>.cls-1{fill:#fff;fill-rule:evenodd;}</style></defs><title>Asset 2</title><g id="Layer_2" data-name="Layer 2"><g id="Layer_1-2" data-name="Layer 1"><path class="cls-1" d="M37.75,49.11C41.43,40.44,44.92,32.22,48.42,24c1.44-3.38,2.84-6.79,4.39-10.13C60.4-2.4,80.33-3.85,91.61,7.37c2,2,3,1.49,4.77.09,8.7-6.85,18.34-9.22,29.12-5.79a18.75,18.75,0,0,1,9,5.69c1.68,2,2.61,1.64,4.47.17,9.36-7.39,19.8-9.86,31-5,9.2,4,14.13,11.39,14.27,21.48.19,13.25.08,26.51,0,39.77,0,7.31-4.71,11.7-11.83,11.27-5.37-.33-9.15-4.79-9.2-11.2-.09-10.88,0-21.77,0-32.66,0-.88,0-1.76,0-2.63-.41-5.56-3.92-9.38-9.09-9.94-6-.65-10.6,2.14-12.14,7.32a17.3,17.3,0,0,0-.47,5c0,10.8,0,21.59,0,32.39,0,6.07-2.83,10.19-7.72,11.47-6.33,1.67-12-1.9-13.1-8.33a26.6,26.6,0,0,1-.34-4.45c0-10.88,0-21.77,0-32.66,0-4.26-1.48-7.81-5.54-9.68a11.4,11.4,0,0,0-12.19,1.18c-3.19,2.36-4,5.83-4,9.57,0,11.24.05,22.48,0,33.71,0,6.89-4.34,11.06-11,11-5.95-.09-10-4.65-10-11.53,0-13.16,0-26.33,0-39.5,0-.7,0-1.4,0-2.11a3,3,0,0,0-2.22-3.18,2.87,2.87,0,0,0-3.61,1.87q-3.24,7-6.46,14.1c-4.42,9.64-8.81,19.29-13.29,28.9a38,38,0,0,1-3.42,5.91C43.14,77,32.64,77.12,27,69.68,24.33,66.14,22.78,62,20.95,58Q11.1,36.67,1.29,15.29C-1.5,9.23.34,3.59,5.85,1.1,11.61-1.5,17.26,1,19.91,7.26Q28.2,26.87,36.5,46.48C36.8,47.2,37.17,47.89,37.75,49.11Z"/><path class="cls-1" d="M240.38,19.74l-8,23q-4.7,13.39-9.4,26.78c-1.19,3.37-2.89,4.81-5.73,4.93s-5.14-1.41-6.3-4.63Q200,39.48,189.18,9.16C188,5.79,189.17,3,192,2c3.21-1.18,6.14.27,7.42,3.94q8.3,23.82,16.49,47.68c.37,1.06.76,2.12,1.32,3.67l7.63-22q5-14.4,10-28.79c1.34-3.82,2.67-4.85,5.94-4.81s4.61,1.25,5.89,5q8.1,23.47,16.16,47c.37,1.07.77,2.13,1.32,3.62,2.79-8,5.45-15.57,8.09-23.15q4.89-14,9.77-28c.72-2.08,1.73-3.87,4.14-4.29,4.37-.76,7.42,2.64,6,6.91-1.73,5.24-3.72,10.39-5.59,15.58l-16,44.51c-.15.41-.3.82-.47,1.23-1.26,3-3.37,4.49-6.2,4.4s-4.61-1.53-5.7-4.63c-2.55-7.27-5-14.57-7.57-21.85q-4.56-13.16-9.15-26.31C241.34,21,241.39,20.17,240.38,19.74Z"/><path class="cls-1" d="M344.6,63.22C339.6,69,334,72.75,327,74.12c-10.5,2.08-20.39.9-28.44-6.86-9.71-9.36-7.53-25.89,4.08-32.84a35.77,35.77,0,0,1,16.55-4.64A70.79,70.79,0,0,1,342.19,32c2.19.59,2.46,0,2.45-2-.06-10.94-6.6-18-17.53-18.76-6.81-.45-13.47.1-19.81,3a4.65,4.65,0,0,1-6.39-2.4,4.45,4.45,0,0,1,2.25-6C315.61.62,328.33-.36,341,4.9c8.48,3.53,12.48,10.74,13.53,19.57,1.1,9.26.32,18.58.47,27.88.09,5.44.06,10.88,0,16.33,0,3.39-1.76,5.47-4.57,5.78a5,5,0,0,1-5.77-5C344.53,67.62,344.6,65.78,344.6,63.22Zm-20-25.64c-5.34.1-10.83.62-15.6,3.92a13,13,0,0,0-.58,21c5.4,4.13,11.63,4.74,18,3.49,8.41-1.63,15.11-5.62,17.72-14.45.84-2.82.35-5.76.53-8.64.1-1.7-.47-2.47-2.19-2.89A86.28,86.28,0,0,0,324.64,37.57Z"/><path class="cls-1" d="M443.36,42.15c-7.81,0-15.63.05-23.44,0-1.94,0-2.4.55-2,2.43,1.88,9.32,6.52,16.6,15.82,19.7,10,3.35,19.21,1,27.21-5.83,1.3-1.11,2.56-2.24,4.36-2.07a4.39,4.39,0,0,1,4,3,4.48,4.48,0,0,1-1.29,5c-5.08,4.94-10.92,8.51-18,9.83-11.89,2.23-22.71.07-31.82-8.28a34,34,0,0,1-10.72-20.6c-1.86-12.51.51-24,9.3-33.5S436.64-.6,449,2.6s19.13,12,22.4,23.9a34.69,34.69,0,0,1,1.23,9.63c0,4.34-1.66,6-6.09,6C458.81,42.16,451.09,42.15,443.36,42.15Zm-3.54-8h15.79c7.27,0,7.27,0,5.26-7-3.63-12.64-14.94-19.4-26.68-15.79-9.79,3-15,12.11-16.41,21.32-.27,1.79,1,1.46,2,1.46Q429.81,34.13,439.82,34.11Z"/><path class="cls-1" d="M378.41,18.14c3.51-6.46,8.08-11.13,14.31-14.05a21.61,21.61,0,0,1,9.87-2.39c2.93.09,4.9,1.78,5.2,4.51.35,3.15-1.11,5.4-4.06,6.12-1.27.32-2.59.44-3.87.74-11.81,2.86-19.68,12.1-21.11,24.95-1.13,10.14-.26,20.33-.51,30.49-.09,3.94-2.92,6.4-6.48,5.62-2.71-.59-4.12-2.43-4.13-5.56,0-7.72,0-15.44,0-23.15q0-18.81,0-37.63c0-3.8,2.06-6.28,5.16-6.3,3.33,0,5.44,2.42,5.45,6.33,0,3.16,0,6.31,0,9.47C378.26,17.36,378.29,17.45,378.41,18.14Z"/><path class="cls-1" d="M491,10.3a8.77,8.77,0,1,1-17.54,0,8.72,8.72,0,0,1,8.78-8.9A8.58,8.58,0,0,1,491,10.3Zm-8.71-7a7,7,0,0,0-7.09,6.93,7.26,7.26,0,0,0,7.1,7.27,7.48,7.48,0,0,0,7-7.17A7.07,7.07,0,0,0,482.27,3.29Z"/><path class="cls-1" d="M481.53,5.91c4.27,0,5.26,1.52,3.52,5-.47.93.1,1.27.41,1.81s.61,1.18-.05,1.61-1.16.07-1.58-.47-.65-.83-1-1.21c-.85-.92-1.7-1.7-1.93.4-.08.75-.25,1.46-1.2,1.37s-.81-1-.83-1.63c0-1.23.08-2.46,0-3.67C478.62,6.76,479.06,5.17,481.53,5.91Zm2.41,2.81c-.28-.84-.94-1.06-1.8-1.07s-1.26.3-1.26,1.19S481.39,10,482.2,10,483.74,9.73,483.94,8.72Z"/><path class="cls-1" d="M483.94,8.72c-.21,1-.91,1.21-1.74,1.26s-1.32-.2-1.32-1.14.4-1.2,1.26-1.19S483.66,7.88,483.94,8.72Z"/></g></g></svg>